<?xml version="1.0" encoding="utf-8"?>
<!-- Generator: Adobe Illustrator 23.0.5, SVG Export Plug-In . SVG Version: 6.00 Build 0)  -->
<svg version="1.1" id="Layer_1" xmlns="http://www.w3.org/2000/svg" xmlns:xlink="http://www.w3.org/1999/xlink" x="0px" y="0px"
	 viewBox="0 0 72 85" style="enable-background:new 0 0 72 85;" xml:space="preserve">
<style type="text/css">
	.st0{fill:#18988B;fill-opacity:0.25;}
</style>
<path class="st0" d="M61.1,67.2V85H14.9V67.2h14.3V22.9c-0.6,4.1-1.8,7.3-3.6,9.4c-1.7,2.1-3.6,3.6-5.7,4.4c-2,0.8-3.8,1.3-5.5,1.3
	c-1.7,0.1-2.8,0.2-3.3,0.2V14.9c0.7,0.2,2,0.4,4,0.4c2.1,0,4.4-0.4,6.8-1.2c2.4-0.8,4.5-2.3,6.3-4.4c1.9-2.1,3-5.2,3.3-9.3H50v66.6
	H61.1z"/>
</svg>
