<svg width="74" height="124" viewBox="0 0 74 124" fill="none" xmlns="http://www.w3.org/2000/svg">
<path d="M73.1826 97.939V124H5.73064V97.939H26.5356V33.334C25.6596 39.32 23.9076 43.919 21.2796 47.131C18.7976 50.197 16.0236 52.314 12.9576 53.482C10.0376 54.65 7.33664 55.307 4.85464 55.453C2.37264 55.599 0.766641 55.672 0.036641 55.672V21.727C1.05864 22.019 3.02964 22.238 5.94964 22.384C9.01564 22.384 12.3006 21.8 15.8046 20.632C19.3086 19.464 22.3746 17.347 25.0026 14.281C27.7766 11.215 29.3826 6.689 29.8206 0.702995H56.9766V97.939H73.1826Z" fill="#18988B" fill-opacity="0.25"/>
</svg>
