<svg width="102" height="126" viewBox="0 0 102 126" fill="none" xmlns="http://www.w3.org/2000/svg">
<path d="M1.08938 126V100.596C1.23538 100.45 3.06038 99.72 6.56438 98.406C10.0684 97.092 14.5214 95.194 19.9234 92.712C25.4714 90.084 31.2384 86.945 37.2244 83.295C43.3564 79.645 48.9774 75.557 54.0874 71.031C59.1974 66.359 63.1394 61.249 65.9134 55.701C68.9794 49.423 69.9284 44.094 68.7604 39.714C67.7384 35.334 65.4754 31.976 61.9714 29.64C58.6134 27.304 54.8174 26.136 50.5834 26.136C43.4294 26.136 37.8084 28.837 33.7204 34.239C29.7784 39.495 28.9754 47.89 31.3114 59.424L2.84138 55.263C1.08938 43.729 2.25738 33.874 6.34538 25.698C10.5794 17.522 16.8574 11.317 25.1794 7.08299C33.5014 2.70299 42.9914 0.512997 53.6494 0.512997C61.5334 0.512997 68.7604 2.04599 75.3304 5.11199C82.0464 8.032 87.5214 12.12 91.7554 17.376C95.9894 22.632 98.4714 28.764 99.2014 35.772C99.9314 42.634 98.3984 49.934 94.6024 57.672C90.8064 65.41 85.7694 71.907 79.4914 77.163C73.2134 82.419 66.7164 86.653 60.0004 89.865C53.4304 93.077 47.4444 95.486 42.0424 97.092C36.7864 98.552 33.1364 99.501 31.0924 99.939H101.172V126H1.08938Z" fill="#18988B" fill-opacity="0.25"/>
</svg>
