<svg width="105" height="129" viewBox="0 0 105 129" fill="none" xmlns="http://www.w3.org/2000/svg">
<path d="M55.4946 128.19C38.7046 128.19 25.3456 124.175 15.4176 116.145C5.63558 107.969 0.890578 95.778 1.18258 79.572L30.5286 75.192C30.5286 83.222 32.6456 89.719 36.8796 94.683C41.2596 99.501 47.6836 101.91 56.1516 101.91C62.2836 101.91 67.0286 100.231 70.3866 96.873C73.8906 93.515 75.6426 89.573 75.6426 85.047C75.6426 80.083 73.5986 76.506 69.5106 74.316C65.5686 71.98 60.4586 70.812 54.1806 70.812H42.5736V55.263H54.8376C57.9036 55.263 60.9696 54.971 64.0356 54.387C67.2476 53.803 69.8756 52.708 71.9196 51.102C74.1096 49.35 75.2046 46.722 75.2046 43.218C75.2046 38.108 73.2336 33.947 69.2916 30.735C65.4956 27.377 60.3126 25.698 53.7426 25.698C46.5886 25.698 40.9676 27.961 36.8796 32.487C32.7916 37.013 30.7476 42.05 30.7476 47.598L3.59158 42.78C3.59158 40.882 4.02958 38.254 4.90558 34.896C5.78158 31.538 7.31458 27.888 9.50458 23.946C11.6946 20.004 14.6146 16.281 18.2646 12.777C22.0606 9.12699 26.8056 6.20699 32.4996 4.01699C38.1936 1.68099 44.9826 0.512997 52.8666 0.512997C68.9266 0.512997 81.1906 3.72499 89.6586 10.149C98.1266 16.427 102.361 24.822 102.361 35.334C102.361 42.488 100.317 48.912 96.2286 54.606C92.1406 60.3 85.5706 63.439 76.5186 64.023C85.1326 64.461 91.9216 67.454 96.8856 73.002C101.85 78.404 104.332 84.828 104.332 92.274C104.332 99.866 102.215 106.363 97.9806 111.765C93.8926 117.167 88.1986 121.255 80.8986 124.029C73.5986 126.803 65.1306 128.19 55.4946 128.19Z" fill="#18988B" fill-opacity="0.25"/>
</svg>
