<svg width="71" height="87" viewBox="0 0 71 87" fill="none" xmlns="http://www.w3.org/2000/svg">
<path d="M35.3471 86.5C27.6471 86.5 21.3471 85.15 16.4471 82.45C11.5471 79.65 7.84707 76.25 5.34707 72.25C2.94707 68.25 1.49707 64.4 0.997071 60.7L21.6971 57.55C21.8971 58.75 22.4971 60.3 23.4971 62.2C24.5971 64 26.1471 65.6 28.1471 67C30.1471 68.4 32.7471 69.1 35.9471 69.1C39.9471 69.1 42.9971 67.9 45.0971 65.5C47.2971 63 48.5971 60.2 48.9971 57.1C49.3971 53.6 48.4971 50.35 46.2971 47.35C44.0971 44.25 40.6471 42.7 35.9471 42.7C33.2471 42.7 31.0971 43.25 29.4971 44.35C27.9971 45.45 26.8971 46.6 26.1971 47.8C25.5971 48.9 25.2471 49.5 25.1471 49.6L3.09707 46.3L7.89707 0.549996H65.7971V18.4H22.1471L19.5971 41.35C19.5971 41.35 19.9971 40.75 20.7971 39.55C21.5971 38.25 22.8971 36.8 24.6971 35.2C26.4971 33.6 28.8471 32.2 31.7471 31C34.6471 29.7 38.1971 29.05 42.3971 29.05C48.9971 29.05 54.3971 30.45 58.5971 33.25C62.7971 35.95 65.7971 39.45 67.5971 43.75C69.4971 48.05 70.2471 52.6 69.8471 57.4C69.4471 62.2 67.7971 66.85 64.8971 71.35C61.9971 75.75 58.0471 79.4 53.0471 82.3C48.0471 85.1 42.1471 86.5 35.3471 86.5Z" fill="#18988B" fill-opacity="0.25"/>
</svg>
