<?xml version="1.0" encoding="utf-8"?>
<!-- Generator: Adobe Illustrator 23.0.5, SVG Export Plug-In . SVG Version: 6.00 Build 0)  -->
<svg version="1.1" id="Layer_1" xmlns="http://www.w3.org/2000/svg" xmlns:xlink="http://www.w3.org/1999/xlink" x="0px" y="0px"
	 viewBox="0 0 235 127" style="enable-background:new 0 0 235 127;" xml:space="preserve">
<style type="text/css">
	.st0{fill:#F4F0EC;}
	.st1{fill:#EDE6E1;}
	.st2{fill:#E6DCD4;}
	.st3{fill:#DFD3C8;}
</style>
<path class="st0" d="M168.9,11.4c2.3,0.3,4.1,1.1,5.8,2.7c13.2,12.6,26.5,25.2,39.8,37.8c3.5,3.3,7,6.6,10.7,9.7
	c2.3,1.9,2.5,3.3,0.2,5.5c-17.2,16-34.2,32.2-51.3,48.2c-3.3,3-7.3,2.8-10.3-0.1c-3-3-3.3-7.2-0.1-10.3c10.2-10,20.6-19.8,31-29.7
	c2.5-2.4,5-4.9,7.7-7.1c3.2-2.5,3.3-4.4,0.2-7.3C189.7,49,177,37,164.4,24.9c-4.9-4.8-3.2-11.7,3.1-13.2
	C168,11.6,168.5,11.5,168.9,11.4z"/>
<path class="st1" d="M118,12c2.4-0.2,4.1,0.5,5.6,2c3.1,3,6.5,5.7,9.6,8.7c13.5,12.8,27,25.7,40.6,38.4c2.8,2.6,2.7,4.1,0,6.6
	c-16.8,15.6-33.5,31.4-50.2,47.1c-3.1,2.9-8.2,2.9-10.8,0.2c-2.8-2.8-2.6-7.9,0.8-11.2c12.5-12,25-23.9,37.7-35.6
	c3.3-3,3.2-4.7,0-7.7c-12.6-11.6-25-23.5-37.4-35.3c-3.7-3.5-4-8.5-1.2-11.5C114.2,12.2,116.1,11.8,118,12z"/>
<path class="st2" d="M68.1,117.6c-3-0.4-5.5-1.7-6.8-4.5c-1.4-2.8-1.1-5.7,1.1-7.9c6.6-6.6,13-13.4,20-19.6
	c6.8-6.1,13.1-12.8,19.7-19.2c2.3-2.2,0.6-3.4-0.8-4.8C89.5,50.4,77.8,39,66.1,27.6c-1-0.9-1.9-1.9-2.8-2.8c-3.6-3.8-3.8-7.8-0.6-11
	c3.3-3.3,7.2-3.2,11,0.5c12.4,12,24.8,24.2,37.3,36.2c4.1,3.9,8.2,7.8,12.5,11.5c2.2,1.9,2,3.3-0.1,5.2c-16.7,16-33.4,32-50.1,48
	C71.8,116.7,70,117.3,68.1,117.6z"/>
<path class="st3" d="M18.2,12c2.2-0.3,4.1,0.8,5.9,2.5C36.8,27,49.5,39.4,62.3,51.8c3.7,3.6,7.6,7,11.4,10.4c1.7,1.5,2,2.9,0.1,4.5
	c-13.8,11.5-25.3,25.5-39,37.2c-3.8,3.2-7.1,7-10.7,10.5c-3.6,3.5-8.7,3.8-11.5,0.7c-2.7-2.9-2.3-7.9,1-11.2
	c12.2-12,24.5-24,36.9-35.8c2.8-2.6,3.1-4.2,0.1-7C38.3,49.4,26.3,37.4,14.1,25.6c-2-2-3.3-4-3.1-7C11.2,14.1,13.2,12.1,18.2,12z"/>
</svg>
