<?xml version="1.0" encoding="utf-8"?>
<!-- Generator: Adobe Illustrator 23.0.5, SVG Export Plug-In . SVG Version: 6.00 Build 0)  -->
<svg version="1.1" id="Layer_1" xmlns="http://www.w3.org/2000/svg" xmlns:xlink="http://www.w3.org/1999/xlink" x="0px" y="0px"
	 viewBox="0 0 1000 1000" style="enable-background:new 0 0 1000 1000;" xml:space="preserve">
<style type="text/css">
	.st0{fill:#F1ECE7;}
	.st1{fill:#F7F5F3;}
</style>
<path class="st0" d="M78.4,69.6c39.5,4.3,62.3,35.8,89.9,58.5c103.4,85.1,205.9,171.3,308.2,257.7c18,15.2,31.4,18,50.9,1
	c64.4-55.8,130.5-109.6,195.8-164.3c53.6-45,106.6-90.7,160.7-135.2c30.1-24.7,70-22,90.6,3.9c24.1,30.3,17.5,64.8-15.9,92.8
	c-106.5,89.3-212.6,179.1-318.9,268.7c-38,32-76.4,63.6-114.3,95.8c-15.1,12.8-28.2,15.3-44.8,1.1C400.5,481,319.8,413,239,345.2
	c-66.1-55.4-132.8-110-198.8-165.5c-21-17.7-29.9-40.4-20.3-68.1C29.4,83.9,50.4,72.6,78.4,69.6z"/>
<path class="st1" d="M78.4,449c39.1,4.1,61.2,34.9,88.2,56.9c106.9,87.4,213,175.9,318.6,264.9c14.3,12,22.1,10.5,35.3-0.6
	c66.7-56.3,134.5-111.4,201.6-167.3C776,558,829,512.2,883,467.5c30.3-25,69.5-23.3,90.9,2.3c24.6,29.4,18.4,65.7-14.5,93.1
	c-116.9,97.7-233.5,195.8-350.2,293.7c-28,23.5-56.3,46.8-83.5,71.1c-16.8,15-30.9,13-47.1-0.7C349,817.7,219.1,708.6,89.2,599.4
	c-16.3-13.7-33.5-26.4-49.5-40.5c-20.7-18.4-29.4-40.8-19.7-68.4C29.8,462.9,51,451.8,78.4,449z"/>
</svg>
