<svg width="47" height="47" viewBox="0 0 47 47" fill="none" xmlns="http://www.w3.org/2000/svg">
<path d="M41.8333 23.5C41.8333 28.3623 39.9018 33.0255 36.4636 36.4636C33.0255 39.9018 28.3623 41.8334 23.5 41.8334C18.6377 41.8334 13.9746 39.9018 10.5364 36.4636C7.09822 33.0255 5.16668 28.3623 5.16668 23.5C5.16668 18.6377 7.09822 13.9746 10.5364 10.5364C13.9746 7.09823 18.6377 5.16669 23.5 5.16669C25.2417 5.16669 26.9375 5.41877 28.5417 5.8771L32.1396 2.27919C29.3994 1.15069 26.4634 0.574391 23.5 0.583355C20.4905 0.583355 17.5106 1.17611 14.7302 2.32778C11.9498 3.47945 9.42349 5.16748 7.29548 7.29549C2.99777 11.5932 0.583344 17.4221 0.583344 23.5C0.583344 29.5779 2.99777 35.4068 7.29548 39.7046C9.42349 41.8326 11.9498 43.5206 14.7302 44.6723C17.5106 45.8239 20.4905 46.4167 23.5 46.4167C29.5779 46.4167 35.4068 44.0023 39.7045 39.7046C44.0022 35.4068 46.4167 29.5779 46.4167 23.5M14.1271 19.1L10.8958 22.3542L21.2083 32.6667L44.125 9.75002L40.8938 6.49585L21.2083 26.1813L14.1271 19.1Z" fill="#18988B"/>
</svg>
